<?xml version="1.0" standalone="no"?>
<!DOCTYPE svg PUBLIC "-//W3C//DTD SVG 20010904//EN"
 "http://www.w3.org/TR/2001/REC-SVG-20010904/DTD/svg10.dtd">
<svg version="1.0" xmlns="http://www.w3.org/2000/svg"
 width="940.000000pt" height="940.000000pt" viewBox="0 0 940.000000 940.000000"
 preserveAspectRatio="xMidYMid meet">

<g transform="translate(0.000000,940.000000) scale(0.100000,-0.100000)"
fill="#000000" stroke="none">
<path d="M4274 8585 c-1244 -129 -2335 -823 -2977 -1895 -270 -452 -445 -955
-518 -1494 -26 -193 -37 -633 -20 -827 69 -793 355 -1513 847 -2129 134 -168
439 -474 600 -602 607 -484 1288 -763 2074 -850 174 -19 622 -16 805 6 765 89
1446 371 2030 841 822 661 1334 1607 1447 2675 27 254 14 702 -28 970 -197
1249 -966 2317 -2084 2892 -402 206 -817 335 -1310 404 -159 22 -687 28 -866
9z m2476 -2359 c-14 -13 -277 -243 -586 -512 -308 -269 -761 -664 -1007 -879
-246 -214 -451 -391 -455 -392 -4 -2 -428 364 -942 813 -1135 990 -1057 922
-1100 961 l-35 32 2075 1 2075 0 -25 -24z m-3500 -751 c346 -302 630 -553 630
-557 0 -7 -1240 -1670 -1266 -1698 -12 -12 -14 194 -14 1399 0 905 3 1411 10
1409 5 -1 293 -250 640 -553z m3538 -1550 l-3 -706 -630 842 c-346 463 -631
847 -633 853 -1 7 127 125 285 263 158 137 443 386 633 552 l345 301 3 -699
c1 -385 1 -1017 0 -1406z m-2438 590 l350 -305 346 302 c190 167 352 304 359
306 10 2 1210 -1587 1223 -1620 2 -4 -865 -8 -1927 -8 -1062 0 -1931 3 -1931
6 0 12 1212 1624 1221 1624 5 0 167 -137 359 -305z"/>
</g>
</svg>
