<?xml version="1.0" standalone="no"?>
<!DOCTYPE svg PUBLIC "-//W3C//DTD SVG 20010904//EN"
 "http://www.w3.org/TR/2001/REC-SVG-20010904/DTD/svg10.dtd">
<svg version="1.0" xmlns="http://www.w3.org/2000/svg"
 width="487.000000pt" height="512.000000pt" viewBox="0 0 487.000000 512.000000"
 preserveAspectRatio="xMidYMid meet">

<g transform="translate(0.000000,512.000000) scale(0.100000,-0.100000)"
fill="#000000" stroke="none">
<path d="M2310 4884 c-651 -45 -1243 -351 -1640 -849 -237 -298 -394 -649
-461 -1030 -27 -155 -36 -450 -20 -607 48 -436 220 -854 494 -1193 88 -109
282 -295 397 -381 415 -311 914 -468 1425 -451 94 4 215 13 270 22 544 85
1043 364 1387 775 279 333 455 730 519 1170 19 130 16 462 -5 600 -77 502
-294 938 -641 1285 -407 407 -953 641 -1535 658 -74 3 -160 3 -190 1z m-577
-1010 c25 -8 67 -34 93 -57 149 -131 119 -368 -59 -457 -213 -106 -451 83
-392 313 42 164 202 254 358 201z m1492 -709 c198 -42 331 -173 391 -385 16
-58 18 -120 22 -612 l3 -548 -235 0 -236 0 0 408 c0 224 -5 439 -10 477 -22
152 -95 232 -223 242 -157 13 -262 -68 -296 -225 -7 -34 -11 -202 -11 -477 l0
-425 -225 0 -225 0 0 755 0 755 225 0 225 0 0 -91 0 -90 63 63 c84 86 190 143
297 161 57 10 169 6 235 -8z m-1345 -790 l0 -755 -235 0 -235 0 0 755 0 755
235 0 235 0 0 -755z"/>
</g>
</svg>
