<?xml version="1.0" standalone="no"?>
<!DOCTYPE svg PUBLIC "-//W3C//DTD SVG 20010904//EN"
 "http://www.w3.org/TR/2001/REC-SVG-20010904/DTD/svg10.dtd">
<svg version="1.0" xmlns="http://www.w3.org/2000/svg"
 width="600.000000pt" height="600.000000pt" viewBox="0 0 600.000000 600.000000"
 preserveAspectRatio="xMidYMid meet">

<g transform="translate(0.000000,600.000000) scale(0.100000,-0.100000)"
fill="#000000" stroke="none">
<path d="M2745 5989 c-1188 -104 -2194 -892 -2584 -2023 -129 -372 -184 -813
-151 -1201 87 -1020 653 -1896 1545 -2393 494 -276 1116 -410 1680 -362 1020
87 1896 653 2393 1545 276 494 410 1116 362 1680 -87 1020 -653 1896 -1545
2393 -499 279 -1123 411 -1700 361z m635 -374 c471 -71 916 -267 1290 -569 96
-77 299 -280 376 -376 303 -376 498 -818 570 -1295 26 -170 26 -580 0 -750
-72 -477 -267 -919 -570 -1295 -77 -96 -280 -299 -376 -376 -376 -303 -818
-498 -1295 -570 -170 -26 -580 -26 -750 0 -477 72 -919 267 -1295 570 -96 77
-299 280 -376 376 -303 376 -498 818 -570 1295 -26 170 -26 580 0 750 72 477
267 919 570 1295 77 96 280 299 376 376 409 330 893 530 1410 584 126 13 516
4 640 -15z"/>
<path d="M2328 5012 c-156 -83 -299 -174 -313 -202 -20 -38 -19 -83 2 -123 57
-111 539 -936 558 -956 32 -33 94 -43 142 -21 52 23 284 158 307 178 46 42 57
101 30 155 -39 75 -538 934 -553 951 -22 25 -65 46 -94 46 -14 0 -49 -13 -79
-28z"/>
<path d="M1833 4616 c-279 -175 -365 -315 -366 -591 -2 -581 342 -1431 867
-2145 275 -374 610 -695 869 -830 181 -95 323 -110 495 -54 67 22 253 114 258
128 3 7 -102 197 -232 422 -130 225 -256 443 -280 485 l-44 76 -67 -23 c-38
-13 -91 -24 -118 -24 -329 -1 -724 445 -872 985 -23 86 -27 119 -28 240 0 124
3 148 25 210 20 56 37 82 86 132 l61 62 -279 483 c-153 266 -282 486 -286 489
-4 4 -44 -16 -89 -45z"/>
<path d="M3669 2404 c-178 -103 -198 -122 -201 -192 -1 -36 30 -95 271 -514
160 -277 287 -486 307 -505 27 -27 42 -33 77 -33 37 0 70 15 208 94 186 107
202 124 196 201 -4 44 -39 109 -279 525 -210 362 -283 480 -308 498 -58 39
-88 31 -271 -74z"/>
</g>
</svg>
